# Blender v2.69 (sub 0) OBJ File: ''
# www.blender.org
mtllib background.mtl
o Grid
v 33.512032 70.639977 -21.500004
v 27.176029 70.639984 -21.500004
v 33.512024 62.719978 -21.500004
v 20.840031 70.639984 -21.500004
v 27.176023 62.719986 -21.500004
v 14.504032 70.639999 -21.500004
v 20.840023 62.719994 -21.500004
v 8.168031 70.639999 -21.500004
v 14.504025 62.720001 -21.500004
v 1.832030 70.640015 -21.500004
v 8.168023 62.720005 -21.500004
v -4.503970 70.640015 -21.500004
v 1.832023 62.720013 -21.500004
v -10.839971 70.640030 -21.500004
v -4.503978 62.720016 -21.500004
v -17.175970 70.640030 -21.500004
v -10.839977 62.720024 -21.500004
v -23.511971 70.640038 -21.500004
v -17.175976 62.720032 -21.500004
v 33.512016 54.799980 -21.500004
v 27.176016 54.799988 -21.500004
v 20.840017 54.799995 -21.500004
v 14.504017 54.800003 -21.500004
v 8.168016 54.800007 -21.500004
v 1.832016 54.800014 -21.500004
v -4.503984 54.800018 -21.500004
v -10.839985 54.800026 -21.500004
v -23.511978 62.720039 -21.500004
v -17.175983 54.800034 -21.500004
v 33.512009 46.879978 -21.500002
v 27.176008 46.879986 -21.500002
v 20.840012 46.879993 -21.500002
v 14.504010 46.879997 -21.500002
v 8.168010 46.880005 -21.500002
v 1.832009 46.880013 -21.500002
v -4.503991 46.880020 -21.500002
v -10.839992 46.880028 -21.500002
v -23.511984 54.800041 -21.500004
v -17.175991 46.880035 -21.500002
v 33.512001 38.959980 -21.500000
v 27.176003 38.959984 -21.500000
v 20.840004 38.959991 -21.500000
v 14.504004 38.959999 -21.500000
v 8.168003 38.960007 -21.500000
v 1.832002 38.960014 -21.500000
v -4.504000 38.960018 -21.500000
v -10.839998 38.960026 -21.500000
v -23.511992 46.880039 -21.500002
v -17.175997 38.960033 -21.500000
v 33.511993 31.039978 -21.500000
v 27.175995 31.039986 -21.500000
v 20.839996 31.039993 -21.500000
v 14.503997 31.039999 -21.500000
v 8.167995 31.040007 -21.500000
v 1.831995 31.040014 -21.500000
v -4.504005 31.040020 -21.500000
v -10.840005 31.040028 -21.500000
v -23.511997 38.960041 -21.500000
v -17.176004 31.040033 -21.500000
v 33.511990 23.119980 -21.500000
v 27.175989 23.119986 -21.500000
v 20.839989 23.119991 -21.500000
v 14.503990 23.119999 -21.500000
v 8.167988 23.120007 -21.500000
v 1.831988 23.120014 -21.500000
v -4.504012 23.120020 -21.500000
v -10.840012 23.120026 -21.500000
v -23.512005 31.040041 -21.500000
v -17.176010 23.120033 -21.500000
v 33.511982 15.199980 -21.499996
v 27.175982 15.199986 -21.499996
v 20.839983 15.199993 -21.499996
v 14.503983 15.200001 -21.499996
v 8.167982 15.200006 -21.499996
v 1.831981 15.200014 -21.499996
v -4.504019 15.200020 -21.499996
v -10.840019 15.200027 -21.499996
v -23.512012 23.120041 -21.500000
v -17.176018 15.200035 -21.499996
v 33.511978 7.279982 -21.499996
v 27.175974 7.279987 -21.499996
v 20.839977 7.279995 -21.499996
v 14.503976 7.280003 -21.499996
v 8.167974 7.280008 -21.499996
v 1.831974 7.280016 -21.499996
v -4.504025 7.280022 -21.499996
v -10.840026 7.280029 -21.499996
v -23.512018 15.200041 -21.499996
v -17.176025 7.280037 -21.499996
v 33.511971 -0.640018 -21.499996
v 27.175968 -0.640011 -21.499996
v 20.839970 -0.640007 -21.499996
v 14.503968 -0.639999 -21.499996
v 8.167968 -0.639992 -21.499996
v 1.831968 -0.639984 -21.499996
v -4.504034 -0.639977 -21.499996
v -10.840033 -0.639969 -21.499996
v -23.512026 7.280043 -21.499996
v -17.176031 -0.639965 -21.499996
v -23.512032 -0.639957 -21.499996
vt 0.000100 0.000120
vt 0.111186 0.000118
vt 0.000102 0.111206
vt 0.222273 0.000116
vt 0.111188 0.111204
vt 0.333360 0.000114
vt 0.222275 0.111203
vt 0.444447 0.000112
vt 0.333362 0.111201
vt 0.555535 0.000110
vt 0.444449 0.111199
vt 0.666622 0.000107
vt 0.555537 0.111197
vt 0.777710 0.000105
vt 0.666624 0.111195
vt 0.888799 0.000102
vt 0.777713 0.111193
vt 0.999887 0.000100
vt 0.888801 0.111191
vt 0.000103 0.222292
vt 0.111190 0.222291
vt 0.222277 0.222290
vt 0.333364 0.222288
vt 0.444451 0.222287
vt 0.555538 0.222285
vt 0.666626 0.222283
vt 0.777714 0.222281
vt 0.999890 0.111189
vt 0.888803 0.222279
vt 0.000105 0.333379
vt 0.111191 0.333378
vt 0.222278 0.333376
vt 0.333365 0.333375
vt 0.444452 0.333374
vt 0.555540 0.333373
vt 0.666628 0.333371
vt 0.777716 0.333370
vt 0.999892 0.222278
vt 0.888804 0.333368
vt 0.000105 0.444465
vt 0.111192 0.444464
vt 0.222279 0.444463
vt 0.333366 0.444462
vt 0.444453 0.444461
vt 0.555541 0.444460
vt 0.666629 0.444459
vt 0.777717 0.444458
vt 0.999893 0.333367
vt 0.888806 0.444457
vt 0.000106 0.555552
vt 0.111193 0.555551
vt 0.222280 0.555551
vt 0.333367 0.555550
vt 0.444454 0.555549
vt 0.555542 0.555548
vt 0.666630 0.555547
vt 0.777718 0.555546
vt 0.999895 0.444456
vt 0.888807 0.555546
vt 0.000106 0.666638
vt 0.111193 0.666638
vt 0.222280 0.666638
vt 0.333368 0.666637
vt 0.444455 0.666636
vt 0.555543 0.666636
vt 0.666631 0.666635
vt 0.777719 0.666635
vt 0.999896 0.555545
vt 0.888807 0.666634
vt 0.000107 0.777725
vt 0.111194 0.777725
vt 0.222281 0.777725
vt 0.333368 0.777724
vt 0.444456 0.777724
vt 0.555543 0.777724
vt 0.666631 0.777723
vt 0.777719 0.777723
vt 0.999896 0.666634
vt 0.888808 0.777723
vt 0.000107 0.888812
vt 0.111194 0.888812
vt 0.222281 0.888812
vt 0.333368 0.888812
vt 0.444456 0.888812
vt 0.555543 0.888811
vt 0.666631 0.888811
vt 0.777719 0.888811
vt 0.999896 0.777723
vt 0.888808 0.888811
vt 0.000107 0.999900
vt 0.111194 0.999899
vt 0.222281 0.999899
vt 0.333369 0.999899
vt 0.444456 0.999899
vt 0.555543 0.999899
vt 0.666631 0.999900
vt 0.777719 0.999900
vt 0.999896 0.888811
vt 0.888808 0.999900
vt 0.999896 0.999900
vn 0.000000 0.000000 1.000000
vn 0.000001 0.000000 1.000000
vn -0.000001 0.000000 1.000000
usemtl Material.001
s off
f 1/1/1 2/2/1 3/3/1
f 2/2/1 4/4/1 5/5/1
f 4/4/2 6/6/2 7/7/2
f 6/6/1 8/8/1 9/9/1
f 8/8/1 10/10/1 11/11/1
f 10/10/1 12/12/1 13/13/1
f 12/12/1 14/14/1 15/15/1
f 14/14/1 16/16/1 17/17/1
f 16/16/1 18/18/1 19/19/1
f 3/3/1 5/5/1 20/20/1
f 5/5/1 7/7/1 21/21/1
f 7/7/1 9/9/1 22/22/1
f 9/9/3 11/11/3 23/23/3
f 11/11/1 13/13/1 24/24/1
f 13/13/3 15/15/3 25/25/3
f 15/15/1 17/17/1 26/26/1
f 17/17/1 19/19/1 27/27/1
f 19/19/1 28/28/1 29/29/1
f 20/20/1 21/21/1 30/30/1
f 21/21/1 22/22/1 31/31/1
f 22/22/1 23/23/1 32/32/1
f 23/23/3 24/24/3 33/33/3
f 24/24/1 25/25/1 34/34/1
f 25/25/1 26/26/1 35/35/1
f 26/26/1 27/27/1 36/36/1
f 27/27/1 29/29/1 37/37/1
f 29/29/1 38/38/1 39/39/1
f 30/30/2 31/31/2 40/40/2
f 31/31/1 32/32/1 41/41/1
f 32/32/1 33/33/1 42/42/1
f 33/33/2 34/34/2 43/43/2
f 34/34/2 35/35/2 44/44/2
f 35/35/2 36/36/2 45/45/2
f 36/36/1 37/37/1 46/46/1
f 37/37/1 39/39/1 47/47/1
f 39/39/1 48/48/1 49/49/1
f 40/40/1 41/41/1 50/50/1
f 41/41/2 42/42/2 51/51/2
f 42/42/2 43/43/2 52/52/2
f 43/43/1 44/44/1 53/53/1
f 44/44/1 45/45/1 54/54/1
f 45/45/3 46/46/3 55/55/3
f 46/46/2 47/47/2 56/56/2
f 47/47/2 49/49/2 57/57/2
f 49/49/1 58/58/1 59/59/1
f 50/50/2 51/51/2 60/60/2
f 51/51/1 52/52/1 61/61/1
f 52/52/1 53/53/1 62/62/1
f 53/53/1 54/54/1 63/63/1
f 54/54/1 55/55/1 64/64/1
f 55/55/1 56/56/1 65/65/1
f 56/56/1 57/57/1 66/66/1
f 57/57/1 59/59/1 67/67/1
f 59/59/1 68/68/1 69/69/1
f 60/60/1 61/61/1 70/70/1
f 61/61/1 62/62/1 71/71/1
f 62/62/2 63/63/2 72/72/2
f 63/63/2 64/64/2 73/73/2
f 64/64/1 65/65/1 74/74/1
f 65/65/1 66/66/1 75/75/1
f 66/66/1 67/67/1 76/76/1
f 67/67/2 69/69/2 77/77/2
f 69/69/2 78/78/2 79/79/2
f 70/70/1 71/71/1 80/80/1
f 71/71/2 72/72/2 81/81/2
f 72/72/2 73/73/2 82/82/2
f 73/73/1 74/74/1 83/83/1
f 74/74/2 75/75/2 84/84/2
f 75/75/1 76/76/1 85/85/1
f 76/76/2 77/77/2 86/86/2
f 77/77/2 79/79/2 87/87/2
f 79/79/1 88/88/1 89/89/1
f 80/80/1 81/81/1 90/90/1
f 81/81/2 82/82/2 91/91/2
f 82/82/1 83/83/1 92/92/1
f 83/83/1 84/84/1 93/93/1
f 84/84/1 85/85/1 94/94/1
f 85/85/1 86/86/1 95/95/1
f 86/86/2 87/87/2 96/96/2
f 87/87/2 89/89/2 97/97/2
f 89/89/1 98/98/1 99/99/1
f 2/2/1 5/5/1 3/3/1
f 4/4/1 7/7/1 5/5/1
f 6/6/1 9/9/1 7/7/1
f 8/8/1 11/11/1 9/9/1
f 10/10/1 13/13/1 11/11/1
f 12/12/1 15/15/1 13/13/1
f 14/14/1 17/17/1 15/15/1
f 16/16/1 19/19/1 17/17/1
f 18/18/1 28/28/1 19/19/1
f 5/5/1 21/21/1 20/20/1
f 7/7/1 22/22/1 21/21/1
f 9/9/1 23/23/1 22/22/1
f 11/11/1 24/24/1 23/23/1
f 13/13/1 25/25/1 24/24/1
f 15/15/1 26/26/1 25/25/1
f 17/17/1 27/27/1 26/26/1
f 19/19/1 29/29/1 27/27/1
f 28/28/1 38/38/1 29/29/1
f 21/21/1 31/31/1 30/30/1
f 22/22/1 32/32/1 31/31/1
f 23/23/1 33/33/1 32/32/1
f 24/24/1 34/34/1 33/33/1
f 25/25/1 35/35/1 34/34/1
f 26/26/1 36/36/1 35/35/1
f 27/27/1 37/37/1 36/36/1
f 29/29/1 39/39/1 37/37/1
f 38/38/1 48/48/1 39/39/1
f 31/31/1 41/41/1 40/40/1
f 32/32/1 42/42/1 41/41/1
f 33/33/1 43/43/1 42/42/1
f 34/34/1 44/44/1 43/43/1
f 35/35/1 45/45/1 44/44/1
f 36/36/1 46/46/1 45/45/1
f 37/37/1 47/47/1 46/46/1
f 39/39/1 49/49/1 47/47/1
f 48/48/1 58/58/1 49/49/1
f 41/41/1 51/51/1 50/50/1
f 42/42/1 52/52/1 51/51/1
f 43/43/1 53/53/1 52/52/1
f 44/44/1 54/54/1 53/53/1
f 45/45/1 55/55/1 54/54/1
f 46/46/1 56/56/1 55/55/1
f 47/47/1 57/57/1 56/56/1
f 49/49/1 59/59/1 57/57/1
f 58/58/1 68/68/1 59/59/1
f 51/51/1 61/61/1 60/60/1
f 52/52/1 62/62/1 61/61/1
f 53/53/1 63/63/1 62/62/1
f 54/54/1 64/64/1 63/63/1
f 55/55/1 65/65/1 64/64/1
f 56/56/1 66/66/1 65/65/1
f 57/57/1 67/67/1 66/66/1
f 59/59/1 69/69/1 67/67/1
f 68/68/1 78/78/1 69/69/1
f 61/61/1 71/71/1 70/70/1
f 62/62/1 72/72/1 71/71/1
f 63/63/1 73/73/1 72/72/1
f 64/64/1 74/74/1 73/73/1
f 65/65/1 75/75/1 74/74/1
f 66/66/1 76/76/1 75/75/1
f 67/67/1 77/77/1 76/76/1
f 69/69/1 79/79/1 77/77/1
f 78/78/1 88/88/1 79/79/1
f 71/71/1 81/81/1 80/80/1
f 72/72/1 82/82/1 81/81/1
f 73/73/1 83/83/1 82/82/1
f 74/74/1 84/84/1 83/83/1
f 75/75/1 85/85/1 84/84/1
f 76/76/1 86/86/1 85/85/1
f 77/77/1 87/87/1 86/86/1
f 79/79/1 89/89/1 87/87/1
f 88/88/1 98/98/1 89/89/1
f 81/81/1 91/91/1 90/90/1
f 82/82/1 92/92/1 91/91/1
f 83/83/1 93/93/1 92/92/1
f 84/84/1 94/94/1 93/93/1
f 85/85/1 95/95/1 94/94/1
f 86/86/1 96/96/1 95/95/1
f 87/87/1 97/97/1 96/96/1
f 89/89/1 99/99/1 97/97/1
f 98/98/1 100/100/1 99/99/1
