# Blender v2.69 (sub 0) OBJ File: ''
# www.blender.org
mtllib stand.mtl
o Cube.000_Cube.008
v 17.244831 4.246789 17.464346
v 17.244831 4.246818 -7.658378
v 17.244831 0.474607 17.464340
v -7.877895 4.246818 -7.658378
v 17.244831 0.474635 -7.658386
v -7.877895 4.246789 17.464346
v -7.877895 0.474635 -7.658386
v -7.877895 0.474607 17.464340
v 29.806194 0.474596 30.025707
v 29.806194 0.474646 -20.219746
v 29.806194 -3.297586 30.025700
v -20.439260 0.474646 -20.219746
v 29.806194 -3.297536 -20.219755
v -20.439260 0.474596 30.025707
v -20.439260 -3.297536 -20.219755
v -20.439260 -3.297586 30.025700
vt 0.000000 0.000000
vt 1.000000 0.000000
vt 1.000000 1.000000
vn -1.000000 0.000000 0.000000
vn 0.000000 -0.000002 1.000000
vn 1.000000 -0.000000 0.000000
vn 0.000000 0.000002 -1.000000
vn 0.000000 1.000000 0.000001
vn 0.000000 -1.000000 -0.000001
vn 0.000000 -0.000003 1.000000
vn 1.000000 0.000001 0.000000
usemtl Material.003
s off
f 1/1/1 2/2/1 3/3/1
f 2/1/2 4/2/2 5/3/2
f 4/1/3 6/2/3 7/3/3
f 6/1/4 1/2/4 8/3/4
f 3/1/5 5/2/5 8/3/5
f 4/1/6 1/2/6 6/3/6
f 2/1/1 5/2/1 3/3/1
f 4/1/2 7/2/2 5/3/2
f 6/1/3 8/2/3 7/3/3
f 1/1/4 3/2/4 8/3/4
f 5/1/5 7/2/5 8/3/5
f 2/1/6 1/2/6 4/3/6
usemtl Material.002
f 9/1/1 10/2/1 11/3/1
f 10/1/7 12/2/7 13/3/7
f 12/1/3 14/2/3 15/3/3
f 14/1/4 9/2/4 16/3/4
f 11/1/5 13/2/5 16/3/5
f 12/2/6 9/3/6 14/1/6
f 10/1/1 13/2/1 11/3/1
f 12/1/7 15/2/7 13/3/7
f 14/1/8 16/2/8 15/3/8
f 9/1/4 11/2/4 16/3/4
f 13/1/5 15/2/5 16/3/5
f 10/2/6 9/3/6 12/1/6
