# Blender v2.69 (sub 0) OBJ File: 'board.blend'
# www.blender.org
mtllib board5.mtl
o Cube.001_Cube.004
v 3.240424 0.308939 4.297107
v 3.240424 0.308939 -7.081302
v 3.768632 0.308939 -7.081302
v 3.768632 0.308939 4.297107
v 3.240424 1.306521 4.297107
v 3.240424 1.306521 -7.081302
v 3.768632 1.306521 -7.081302
v 3.768632 1.306521 4.297107
vn -1.000000 0.000000 0.000000
vn 0.000000 0.000000 -1.000000
vn 1.000000 0.000000 0.000000
vn 0.000000 0.000000 1.000000
vn 0.000000 -1.000000 0.000000
vn 0.000000 1.000000 0.000000
usemtl None
s off
f 5//1 6//1 1//1
f 6//2 7//2 2//2
f 7//3 8//3 3//3
f 8//4 5//4 4//4
f 1//5 2//5 4//5
f 8//6 7//6 5//6
f 6//1 2//1 1//1
f 7//2 3//2 2//2
f 8//3 4//3 3//3
f 5//4 1//4 4//4
f 2//5 3//5 4//5
f 7//6 6//6 5//6
o Plane
v -4.274910 0.304782 -4.970367
v -4.399273 0.304782 -4.818830
v 7.173550 0.304782 -7.379499
v -4.182500 0.304782 -5.143254
v -4.274910 -1.322550 -4.970367
v -4.399273 -1.322550 -4.818830
v -4.550810 0.304782 -4.694468
v -4.125595 0.304782 -5.330847
v -4.182500 -1.322550 -5.143254
v -5.813487 -1.322550 -4.818830
v -4.550810 -1.322550 -4.694468
v -4.723697 0.304782 -4.602057
v -4.106380 0.304782 -5.525937
v -4.125595 -1.322550 -5.330847
v -5.937850 -1.322550 -4.970367
v -5.661951 -1.322550 -4.694468
v -4.723697 -1.322550 -4.602057
v -4.911290 0.304782 -4.545152
v 7.173550 0.304782 7.279780
v -4.125595 0.304782 -5.721027
v -4.106380 -1.322550 -5.525937
v -6.030260 -1.322550 -5.143254
v -5.937850 0.304782 -4.970367
v -5.813487 0.304782 -4.818830
v -5.661951 0.304782 -4.694468
v -5.489064 -1.322550 -4.602058
v -4.911290 -1.322550 -4.545152
v -5.106380 0.304782 -4.525937
v -4.182500 0.304782 -5.908620
v -4.125595 -1.322550 -5.721027
v -6.087165 -1.322550 -5.330848
v -6.030260 0.304782 -5.143254
v -6.932893 0.304782 7.279780
v -5.489064 0.304782 -4.602058
v -5.301471 -1.322550 -4.545152
v -5.106380 -1.322550 -4.525937
v -5.301471 0.304782 -4.545152
v -2.997859 0.304782 4.595990
v -3.123694 0.304782 4.583596
v -2.872023 0.304782 4.583596
v -3.244694 0.304782 4.546891
v -2.751023 0.304782 4.546891
v -3.356208 0.304782 4.487285
v -3.453951 0.304782 4.407070
v -3.534167 0.304782 4.309327
v -3.593772 0.304782 4.197813
v -3.630477 0.304782 4.076812
v -2.639509 0.304782 4.487286
v -3.642871 0.304782 3.950976
v -3.630477 0.304782 3.825141
v -3.593772 0.304782 3.704141
v -3.534166 0.304782 3.592627
v -3.453950 0.304782 3.494884
v -3.356207 0.304782 3.414669
v -3.244693 0.304782 3.355063
v -3.123693 0.304782 3.318358
v -2.997859 0.304782 3.305965
v -2.872023 0.304782 3.318359
v -2.751023 0.304782 3.355064
v -2.541766 0.304782 4.407070
v -2.639509 0.304782 3.414669
v -2.541766 0.304782 3.494885
v -2.461550 0.304782 3.592628
v -2.401945 0.304782 3.704142
v -2.365240 0.304782 3.825141
v -2.352846 0.304782 3.950977
v -2.365240 0.304782 4.076813
v -2.401945 0.304782 4.197813
v -2.461550 0.304782 4.309327
v -4.274910 0.304782 -6.081507
v -4.182500 -1.322550 -5.908620
v -6.106380 -1.322550 -5.525938
v -6.087165 0.304782 -5.330848
v -4.399273 0.304782 -6.233044
v -4.274910 -1.322550 -6.081507
v -6.087165 -1.322550 -5.721028
v -6.106380 0.304782 -5.525938
v -6.932893 0.304782 -7.379499
v -4.550810 0.304782 -6.357407
v -4.399273 -1.322550 -6.233044
v -6.030259 -1.322550 -5.908622
v -6.087165 0.304782 -5.721028
v -4.723697 0.304782 -6.449817
v -4.550810 -1.322550 -6.357407
v -5.937849 -1.322550 -6.081508
v -6.030259 0.304782 -5.908622
v -4.911290 0.304782 -6.506723
v -4.723697 -1.322550 -6.449817
v -5.813486 -1.322550 -6.233045
v -5.937849 0.304782 -6.081508
v -5.106380 0.304782 -6.525938
v -4.911290 -1.322550 -6.506723
v -5.661949 -1.322550 -6.357408
v -5.813486 0.304782 -6.233045
v -5.301469 0.304782 -6.506723
v -5.106380 -1.322550 -6.525938
v -5.489062 -1.322550 -6.449817
v -5.661949 0.304782 -6.357408
v -5.489062 0.304782 -6.449817
v -5.301469 -1.322550 -6.506723
vt 0.835592 0.780915
vt 0.825257 0.789397
vt 0.999902 0.000098
vt 0.847384 0.774613
vt 0.860178 0.770732
vt 0.873484 0.769421
vt 0.886790 0.770732
vt 0.899584 0.774613
vt 0.911375 0.780915
vt 0.921710 0.789397
vt 0.930192 0.799732
vt 0.936495 0.811524
vt 0.940376 0.824318
vt 0.999902 0.962197
vt 0.941687 0.837624
vt 0.816775 0.799732
vt 0.940376 0.850929
vt 0.936495 0.863724
vt 0.930192 0.875515
vt 0.921711 0.885850
vt 0.911375 0.894332
vt 0.899584 0.900635
vt 0.886790 0.904516
vt 0.873484 0.905827
vt 0.860178 0.904516
vt 0.000098 0.962197
vt 0.810473 0.811524
vt 0.835592 0.894333
vt 0.847384 0.900635
vt 0.825257 0.885851
vt 0.816775 0.875515
vt 0.810473 0.863724
vt 0.806592 0.824318
vt 0.000098 0.000098
vt 0.202691 0.657239
vt 0.196025 0.662710
vt 0.210297 0.653174
vt 0.218549 0.650670
vt 0.227132 0.649825
vt 0.235714 0.650670
vt 0.243967 0.653174
vt 0.251572 0.657239
vt 0.258239 0.662710
vt 0.263709 0.669376
vt 0.805281 0.837624
vt 0.190554 0.669376
vt 0.270278 0.685234
vt 0.267775 0.676982
vt 0.271123 0.693817
vt 0.270278 0.702399
vt 0.267775 0.710652
vt 0.263710 0.718257
vt 0.258239 0.724924
vt 0.251572 0.730394
vt 0.243967 0.734460
vt 0.235714 0.736963
vt 0.227132 0.737808
vt 0.186489 0.676982
vt 0.210297 0.734460
vt 0.218549 0.736963
vt 0.202691 0.730395
vt 0.196025 0.724924
vt 0.190554 0.718257
vt 0.186489 0.710652
vt 0.183985 0.685234
vt 0.183985 0.702399
vt 0.183140 0.693817
vt 0.806592 0.850930
vt 0.806591 0.850930
vt 1.000000 0.000000
vt 1.000000 1.000000
vt 0.000000 0.000000
vt 0.000000 1.000000
vn 0.000000 1.000000 -0.000000
vn 0.000000 1.000000 0.000001
vn 0.000000 1.000000 -0.000001
vn 0.000000 1.000000 0.000002
vn -0.098018 0.000000 0.995185
vn -0.290288 0.000000 0.956939
vn -0.471400 0.000000 0.881920
vn -0.634396 0.000000 0.773008
vn -0.773011 0.000000 0.634392
vn -0.881920 0.000000 0.471398
vn -0.956940 0.000000 0.290286
vn -0.995185 0.000000 0.098017
vn -0.995185 0.000000 -0.098017
vn -0.956940 0.000000 -0.290284
vn -0.881922 0.000000 -0.471396
vn -0.773011 0.000000 -0.634392
vn -0.634393 0.000000 -0.773011
vn -0.471398 0.000000 -0.881921
vn -0.290282 0.000000 -0.956941
vn -0.098015 0.000000 -0.995185
vn 0.098015 0.000000 -0.995185
vn 0.290285 0.000000 -0.956940
vn 0.471398 0.000000 -0.881921
vn 0.634394 0.000000 -0.773009
vn 0.773011 0.000000 -0.634392
vn 0.881920 0.000000 -0.471398
vn 0.956941 0.000000 -0.290282
vn 0.995185 0.000000 -0.098017
vn 0.995185 0.000000 0.098019
vn 0.956940 0.000000 0.290284
vn 0.881920 0.000000 0.471398
vn 0.773009 0.000000 0.634395
vn 0.634392 0.000000 0.773012
vn 0.471395 0.000000 0.881922
vn 0.098013 0.000000 0.995185
vn 0.290282 0.000000 0.956941
vn 0.000000 1.000000 0.000003
vn 0.000000 1.000000 -0.000003
vn 0.000000 1.000000 0.000008
vn -0.098012 0.000000 0.995185
vn -0.290282 0.000000 0.956941
vn -0.471395 0.000000 0.881922
vn -0.773009 0.000000 0.634395
vn -0.881922 0.000000 0.471396
vn -0.956940 0.000000 0.290284
vn -0.995185 0.000000 -0.098016
vn -0.956940 0.000000 -0.290286
vn -0.881920 0.000000 -0.471398
vn -0.773009 0.000000 -0.634395
vn -0.634394 0.000000 -0.773009
vn -0.290285 0.000000 -0.956940
vn -0.098018 0.000000 -0.995185
vn 0.098018 0.000000 -0.995185
vn 0.290288 0.000000 -0.956939
vn 0.471393 0.000000 -0.881923
vn 0.634393 0.000000 -0.773011
vn 0.881922 0.000000 -0.471396
vn 0.773011 0.000000 0.634392
vn 0.634395 0.000000 0.773009
vn 0.098019 0.000000 0.995184
vn 0.290287 0.000000 0.956940
usemtl None_wood.jpg
s off
f 9/1/7 10/2/7 11/3/7
f 12/4/7 9/1/7 11/3/7
f 11/3/7 16/5/7 12/4/7
f 11/3/7 21/6/7 16/5/7
f 11/3/7 28/7/7 21/6/7
f 11/3/7 37/8/7 28/7/7
f 11/3/7 78/9/7 37/8/7
f 11/3/7 82/10/7 78/9/7
f 11/3/7 87/11/7 82/10/7
f 11/3/7 91/12/7 87/11/7
f 11/3/7 95/13/7 91/12/7
f 86/14/7 99/15/7 11/3/7
f 10/2/7 15/16/7 11/3/7
f 86/14/7 103/17/7 99/15/7
f 86/14/7 107/18/7 103/17/7
f 86/14/7 106/19/7 107/18/7
f 86/14/7 102/20/7 106/19/7
f 86/14/7 98/21/7 102/20/7
f 86/14/7 94/22/7 98/21/7
f 86/14/7 90/23/7 94/22/7
f 86/14/7 85/24/7 90/23/7
f 86/14/7 81/25/7 85/24/7
f 86/14/7 41/26/7 81/25/7
f 15/16/8 20/27/8 11/3/8
f 41/26/7 31/28/7 40/29/7
f 41/26/7 32/30/7 31/28/7
f 41/26/7 33/31/7 32/30/7
f 41/26/7 42/32/7 33/31/7
f 26/33/7 27/34/7 20/27/7
f 77/35/7 68/36/7 27/34/7
f 27/34/8 76/37/8 77/35/8
f 27/34/7 75/38/7 76/37/7
f 27/34/7 74/39/7 75/38/7
f 27/34/7 73/40/7 74/39/7
f 27/34/7 72/41/7 73/40/7
f 27/34/9 71/42/9 72/41/9
f 27/34/7 70/43/7 71/42/7
f 27/34/10 69/44/10 70/43/10
f 27/34/7 36/45/7 69/44/7
f 68/36/7 56/46/7 27/34/7
f 36/45/7 66/47/7 67/48/7
f 36/45/7 65/49/7 66/47/7
f 36/45/7 64/50/7 65/49/7
f 36/45/7 63/51/7 64/50/7
f 36/45/7 62/52/7 63/51/7
f 36/45/7 61/53/7 62/52/7
f 36/45/7 60/54/7 61/53/7
f 36/45/7 59/55/7 60/54/7
f 36/45/7 58/56/7 59/55/7
f 36/45/7 57/57/7 58/56/7
f 36/45/7 41/26/7 57/57/7
f 56/46/8 50/58/8 27/34/8
f 41/26/7 54/59/7 55/60/7
f 41/26/7 53/61/7 54/59/7
f 41/26/7 52/62/7 53/61/7
f 41/26/7 51/63/7 52/62/7
f 41/26/7 49/64/7 51/63/7
f 50/58/7 48/65/7 27/34/7
f 41/26/7 47/66/7 49/64/7
f 46/67/7 41/26/7 27/34/7
f 41/26/7 46/67/7 47/66/7
f 36/45/7 45/68/7 41/26/7
f 26/33/7 36/45/7 27/34/7
f 41/26/7 45/69/7 42/32/7
f 99/15/8 95/13/8 11/3/8
f 41/26/7 40/29/7 81/25/7
f 27/34/7 11/3/7 20/27/7
f 36/45/7 67/48/7 69/44/7
f 41/26/7 55/60/7 57/57/7
f 48/65/9 46/67/9 27/34/9
usemtl None
f 104/70/11 100/71/11 99/72/11
f 100/70/12 96/71/12 95/72/12
f 96/70/13 92/71/13 91/72/13
f 92/70/14 88/71/14 87/72/14
f 88/70/15 83/71/15 82/72/15
f 83/70/16 79/71/16 78/72/16
f 79/70/17 38/71/17 37/72/17
f 38/70/18 29/71/18 28/72/18
f 29/70/19 22/71/19 21/72/19
f 22/70/20 17/71/20 16/72/20
f 9/73/21 12/72/21 13/71/21
f 10/73/22 9/72/22 14/71/22
f 14/70/23 19/71/23 10/72/23
f 19/70/24 25/71/24 15/72/24
f 25/70/25 35/71/25 20/72/25
f 36/73/26 26/72/26 44/71/26
f 44/70/27 43/71/27 36/72/27
f 43/70/28 34/71/28 45/72/28
f 34/70/29 24/71/29 42/72/29
f 24/70/30 18/71/30 33/72/30
f 18/70/31 23/71/31 32/72/31
f 23/70/32 30/71/32 31/72/32
f 30/70/33 39/71/33 40/72/33
f 39/70/34 80/71/34 81/72/34
f 80/70/35 84/71/35 85/72/35
f 84/70/36 89/71/36 90/72/36
f 89/70/37 93/71/37 94/72/37
f 93/70/38 97/71/38 98/72/38
f 97/70/39 101/71/39 102/72/39
f 101/70/40 105/71/40 106/72/40
f 108/70/41 104/71/41 103/72/41
f 105/70/42 108/71/42 107/72/42
f 104/72/7 108/70/7 100/71/7
f 100/72/9 108/70/9 105/71/9
f 100/72/7 105/70/7 96/71/7
f 96/72/43 105/70/43 101/71/43
f 96/72/7 101/70/7 92/71/7
f 92/72/7 101/70/7 97/71/7
f 92/72/9 97/70/9 88/71/9
f 88/72/7 97/70/7 93/71/7
f 88/72/7 93/70/7 83/71/7
f 83/72/8 93/70/8 89/71/8
f 83/72/7 89/70/7 79/71/7
f 79/72/7 89/70/7 84/71/7
f 79/72/7 84/70/7 38/71/7
f 38/72/7 84/70/7 80/71/7
f 38/72/7 80/70/7 29/71/7
f 29/72/7 80/70/7 39/71/7
f 29/72/7 39/70/7 22/71/7
f 22/72/7 39/70/7 30/71/7
f 22/72/7 30/70/7 17/71/7
f 17/72/7 30/70/7 23/71/7
f 17/72/7 23/70/7 13/71/7
f 13/72/9 23/70/9 18/71/9
f 13/72/8 18/70/8 14/71/8
f 14/72/9 18/70/9 24/71/9
f 14/72/10 24/70/10 19/71/10
f 19/72/8 24/70/8 34/71/8
f 19/72/44 34/70/44 25/71/44
f 25/72/10 34/70/10 43/71/10
f 25/72/7 43/70/7 35/71/7
f 35/72/45 43/70/45 44/71/45
f 100/71/46 95/73/46 99/72/46
f 96/71/47 91/73/47 95/72/47
f 92/71/48 87/73/48 91/72/48
f 88/71/14 82/73/14 87/72/14
f 83/71/49 78/73/49 82/72/49
f 79/71/50 37/73/50 78/72/50
f 38/71/51 28/73/51 37/72/51
f 29/71/18 21/73/18 28/72/18
f 22/71/52 16/73/52 21/72/52
f 17/71/53 12/73/53 16/72/53
f 12/72/54 17/70/54 13/71/54
f 9/72/55 13/70/55 14/71/55
f 19/71/56 15/73/56 10/72/56
f 25/71/24 20/73/24 15/72/24
f 35/71/57 26/73/57 20/72/57
f 26/72/58 35/70/58 44/71/58
f 43/71/59 45/73/59 36/72/59
f 34/71/60 42/73/60 45/72/60
f 24/71/61 33/73/61 42/72/61
f 18/71/62 32/73/62 33/72/62
f 23/71/31 31/73/31 32/72/31
f 30/71/63 40/73/63 31/72/63
f 39/71/33 81/73/33 40/72/33
f 80/71/34 85/73/34 81/72/34
f 84/71/35 90/73/35 85/72/35
f 89/71/36 94/73/36 90/72/36
f 93/71/37 98/73/37 94/72/37
f 97/71/64 102/73/64 98/72/64
f 101/71/65 106/73/65 102/72/65
f 105/71/40 107/73/40 106/72/40
f 104/71/66 99/73/66 103/72/66
f 108/71/67 103/73/67 107/72/67
o Cube
v -7.124576 0.184662 -7.052077
v -7.124576 0.184662 -7.488971
v 7.159567 0.184662 -7.488971
v 7.159567 0.184662 -7.052077
v -7.124576 1.394481 -7.052077
v -7.124576 1.394481 -7.488971
v 7.159567 1.394481 -7.488971
v 7.159567 1.394481 -7.052077
v -6.585164 0.226316 -7.516401
v -6.585164 0.226316 7.356945
v -7.125183 0.226316 7.356945
v -7.125182 0.226316 -7.516402
v -6.585164 1.389978 -7.516401
v -6.585165 1.389978 7.356947
v -7.125183 1.389978 7.356945
v -7.125183 1.389978 -7.516401
v 7.222792 0.227379 -7.516401
v 7.222792 0.227379 7.356945
v 6.682774 0.227379 7.356945
v 6.682774 0.227379 -7.516402
v 7.222793 1.395955 -7.516401
v 7.222792 1.395955 7.356947
v 6.682774 1.395955 7.356945
v 6.682774 1.395955 -7.516401
v -7.124576 0.184662 7.340827
v -7.124576 0.184662 6.903933
v 7.159567 0.184662 6.903933
v 7.159567 0.184662 7.340827
v -7.124576 1.394481 7.340827
v -7.124576 1.394481 6.903933
v 7.159567 1.394481 6.903933
v 7.159567 1.394481 7.340827
vt 0.000000 0.000000
vt 1.000000 0.000000
vt 0.000000 1.000000
vt 1.000000 1.000000
vn -1.000000 0.000000 0.000000
vn 0.000000 0.000000 -1.000000
vn 1.000000 0.000000 0.000000
vn 0.000000 0.000000 1.000000
vn 0.000000 -1.000000 0.000000
vn 0.000000 1.000000 0.000000
vn -0.000003 -0.000002 1.000000
vn -1.000000 -0.000001 -0.000000
vn 1.000000 -0.000001 0.000000
vn 0.000000 -0.000002 1.000000
vn -0.000003 0.000000 1.000000
usemtl Material
s off
f 113/74/68 114/75/68 109/76/68
f 114/74/69 115/75/69 110/76/69
f 115/74/70 116/75/70 111/76/70
f 116/74/71 113/75/71 112/76/71
f 109/74/72 110/75/72 112/76/72
f 116/74/73 115/75/73 113/76/73
f 117/74/72 118/75/72 120/76/72
f 121/74/73 124/75/73 122/76/73
f 117/74/70 121/75/70 118/76/70
f 118/74/74 122/75/74 123/77/74
f 119/74/75 123/75/75 120/76/75
f 121/74/69 117/75/69 124/76/69
f 114/75/68 110/77/68 109/76/68
f 115/75/69 111/77/69 110/76/69
f 116/75/70 112/77/70 111/76/70
f 113/75/71 109/77/71 112/76/71
f 110/75/72 111/77/72 112/76/72
f 115/75/73 114/77/73 113/76/73
f 118/75/72 119/77/72 120/76/72
f 124/75/73 123/77/73 122/76/73
f 121/75/70 122/77/70 118/76/70
f 119/76/71 118/74/71 123/77/71
f 123/75/75 124/77/75 120/76/75
f 117/75/69 120/77/69 124/76/69
usemtl Material.001
f 125/74/72 126/75/72 128/76/72
f 129/74/73 132/75/73 130/76/73
f 125/74/76 129/75/76 126/76/76
f 126/74/77 130/75/77 127/76/77
f 127/74/68 131/75/68 128/76/68
f 129/74/69 125/75/69 132/76/69
f 137/74/68 138/75/68 133/76/68
f 138/74/69 139/75/69 134/76/69
f 139/74/70 140/75/70 135/76/70
f 140/74/71 137/75/71 136/76/71
f 133/74/72 134/75/72 136/76/72
f 140/74/73 139/75/73 137/76/73
f 126/75/72 127/77/72 128/76/72
f 132/75/73 131/77/73 130/76/73
f 129/75/70 130/77/70 126/76/70
f 130/75/78 131/77/78 127/76/78
f 131/75/68 132/77/68 128/76/68
f 125/75/69 128/77/69 132/76/69
f 138/75/68 134/77/68 133/76/68
f 139/75/69 135/77/69 134/76/69
f 140/75/70 136/77/70 135/76/70
f 137/75/71 133/77/71 136/76/71
f 134/75/72 135/77/72 136/76/72
f 139/75/73 138/77/73 137/76/73
o Cube.002_Cube.005
v 0.234798 0.308939 6.687641
v 0.234798 0.308939 -4.690767
v 0.763006 0.308939 -4.690767
v 0.763006 0.308939 6.687641
v 0.234798 1.306521 6.687641
v 0.234798 1.306521 -4.690767
v 0.763006 1.306521 -4.690767
v 0.763006 1.306521 6.687641
vn -1.000000 0.000000 0.000000
vn 0.000000 0.000000 -1.000000
vn 1.000000 0.000000 0.000000
vn 0.000000 0.000000 1.000000
vn 0.000000 -1.000000 0.000000
vn 0.000000 1.000000 0.000000
usemtl None
s off
f 145//79 146//79 141//79
f 146//80 147//80 142//80
f 147//81 148//81 143//81
f 148//82 145//82 144//82
f 141//83 142//83 144//83
f 148//84 147//84 145//84
f 146//79 142//79 141//79
f 147//80 143//80 142//80
f 148//81 144//81 143//81
f 145//82 141//82 144//82
f 142//83 143//83 144//83
f 147//84 146//84 145//84
o Cube.003_Cube.006
v -3.357561 0.308939 -7.081302
v -3.357561 0.308939 3.415780
v -3.357561 1.306521 3.415780
v -3.357561 1.306521 -7.081302
v -2.829353 1.306521 3.331303
v -2.829353 1.306521 -7.081302
v -2.872023 1.306521 3.318359
v -3.356207 1.306521 3.414669
v -2.997858 1.306521 3.305965
v -3.244693 1.306521 3.355063
v -3.123693 1.306521 3.318358
v -2.829353 0.308939 -7.081302
v -2.829353 0.308939 3.331303
v -2.872023 0.308939 3.318359
v -3.356207 0.308939 3.414669
v -2.997858 0.308939 3.305965
v -3.244693 0.308939 3.355063
v -3.123693 0.308939 3.318358
vn -1.000000 0.000000 0.000000
vn 0.000000 0.000000 -1.000000
vn 1.000000 0.000000 0.000000
vn 0.000000 -1.000000 0.000000
vn 0.000000 1.000000 0.000000
vn -0.098018 0.000000 0.995185
vn -0.290281 0.000000 0.956941
vn 0.634349 0.000000 0.773047
vn 0.471395 0.000000 0.881922
vn 0.098015 0.000000 0.995185
vn 0.290285 0.000000 0.956940
vn -0.290291 0.000000 0.956938
vn 0.634512 0.000000 0.772913
vn 0.290282 0.000000 0.956941
usemtl None
s off
f 149//85 150//85 152//85
f 149//86 152//86 160//86
f 160//87 154//87 161//87
f 149//88 166//88 165//88
f 149//88 164//88 166//88
f 163//88 149//88 165//88
f 149//88 162//88 164//88
f 150//88 149//88 163//88
f 149//88 160//88 161//88
f 152//89 159//89 157//89
f 152//89 158//89 159//89
f 152//89 156//89 158//89
f 157//89 155//89 152//89
f 152//89 151//89 156//89
f 153//89 154//89 152//89
f 162//90 155//90 164//90
f 161//91 153//91 162//91
f 151//92 150//92 156//92
f 165//93 158//93 163//93
f 159//94 166//94 157//94
f 166//95 159//95 165//95
f 150//85 151//85 152//85
f 152//86 154//86 160//86
f 154//87 153//87 161//87
f 162//88 149//88 161//88
f 155//89 153//89 152//89
f 155//90 157//90 164//90
f 153//96 155//96 162//96
f 150//97 163//97 156//97
f 158//93 156//93 163//93
f 166//94 164//94 157//94
f 159//98 158//98 165//98
