# Blender v2.69 (sub 0) OBJ File: ''
# www.blender.org
mtllib board3.mtl
o Plane
v 7.173550 0.304782 7.279780
v -6.932893 0.304782 7.279780
v 7.173550 0.304782 -7.379499
v -6.932893 0.304782 -7.379499
vt 0.000098 0.962197
vt 0.000098 0.000098
vt 0.999902 0.962197
vt 0.999902 0.000098
vn 0.000000 1.000000 0.000000
usemtl None
s off
f 2/1/1 1/2/1 4/3/1
f 1/2/1 3/4/1 4/3/1
o Cube
v -7.124576 0.184662 -7.052077
v -7.124576 0.184662 -7.488971
v 7.159567 0.184662 -7.488971
v 7.159567 0.184662 -7.052077
v -7.124576 1.394481 -7.052077
v -7.124576 1.394481 -7.488971
v 7.159567 1.394481 -7.488971
v 7.159567 1.394481 -7.052077
v -6.585164 0.226316 -7.516401
v -6.585164 0.226316 7.356945
v -7.125183 0.226316 7.356945
v -7.125182 0.226316 -7.516402
v -6.585164 1.389978 -7.516401
v -6.585165 1.389978 7.356947
v -7.125183 1.389978 7.356945
v -7.125183 1.389978 -7.516401
v 7.222792 0.227379 -7.516401
v 7.222792 0.227379 7.356945
v 6.682774 0.227379 7.356945
v 6.682774 0.227379 -7.516402
v 7.222793 1.395955 -7.516401
v 7.222792 1.395955 7.356947
v 6.682774 1.395955 7.356945
v 6.682774 1.395955 -7.516401
v -7.124576 0.184662 7.340827
v -7.124576 0.184662 6.903933
v 7.159567 0.184662 6.903933
v 7.159567 0.184662 7.340827
v -7.124576 1.394481 7.340827
v -7.124576 1.394481 6.903933
v 7.159567 1.394481 6.903933
v 7.159567 1.394481 7.340827
vt 0.000000 0.000000
vt 1.000000 0.000000
vt 0.000000 1.000000
vt 1.000000 1.000000
vn -1.000000 0.000000 0.000000
vn 0.000000 0.000000 -1.000000
vn 1.000000 0.000000 0.000000
vn 0.000000 0.000000 1.000000
vn 0.000000 -1.000000 0.000000
vn 0.000000 1.000000 0.000000
vn -0.000003 -0.000002 1.000000
vn -1.000000 -0.000001 -0.000000
vn 1.000000 -0.000001 0.000000
vn 0.000000 -0.000002 1.000000
vn -0.000003 0.000000 1.000000
usemtl Material
s off
f 9/5/2 10/6/2 5/7/2
f 10/5/3 11/6/3 6/7/3
f 11/5/4 12/6/4 7/7/4
f 12/5/5 9/6/5 8/7/5
f 5/5/6 6/6/6 8/7/6
f 12/5/7 11/6/7 9/7/7
f 13/5/6 14/6/6 16/7/6
f 17/5/7 20/6/7 18/7/7
f 13/5/4 17/6/4 14/7/4
f 14/5/8 18/6/8 19/8/8
f 15/5/9 19/6/9 16/7/9
f 17/5/3 13/6/3 20/7/3
f 10/6/2 6/8/2 5/7/2
f 11/6/3 7/8/3 6/7/3
f 12/6/4 8/8/4 7/7/4
f 9/6/5 5/8/5 8/7/5
f 6/6/6 7/8/6 8/7/6
f 11/6/7 10/8/7 9/7/7
f 14/6/6 15/8/6 16/7/6
f 20/6/7 19/8/7 18/7/7
f 17/6/4 18/8/4 14/7/4
f 15/7/5 14/5/5 19/8/5
f 19/6/9 20/8/9 16/7/9
f 13/6/3 16/8/3 20/7/3
usemtl Material.001
f 21/5/6 22/6/6 24/7/6
f 25/5/7 28/6/7 26/7/7
f 21/5/10 25/6/10 22/7/10
f 22/5/11 26/6/11 23/7/11
f 23/5/2 27/6/2 24/7/2
f 25/5/3 21/6/3 28/7/3
f 33/5/2 34/6/2 29/7/2
f 34/5/3 35/6/3 30/7/3
f 35/5/4 36/6/4 31/7/4
f 36/5/5 33/6/5 32/7/5
f 29/5/6 30/6/6 32/7/6
f 36/5/7 35/6/7 33/7/7
f 22/6/6 23/8/6 24/7/6
f 28/6/7 27/8/7 26/7/7
f 25/6/4 26/8/4 22/7/4
f 26/6/12 27/8/12 23/7/12
f 27/6/2 28/8/2 24/7/2
f 21/6/3 24/8/3 28/7/3
f 34/6/2 30/8/2 29/7/2
f 35/6/3 31/8/3 30/7/3
f 36/6/4 32/8/4 31/7/4
f 33/6/5 29/8/5 32/7/5
f 30/6/6 31/8/6 32/7/6
f 35/6/7 34/8/7 33/7/7
