# Blender v2.69 (sub 0) OBJ File: ''
# www.blender.org
mtllib finish.mtl
o Cylinder
v 0.000000 -0.811345 -0.811345
v 0.000000 0.294709 -0.811345
v 0.158286 -0.811345 -0.795755
v 0.158286 0.294709 -0.795755
v 0.310488 -0.811345 -0.749585
v 0.310488 0.294709 -0.749585
v 0.450759 -0.811345 -0.674609
v 0.450759 0.294709 -0.674609
v 0.573708 -0.811345 -0.573708
v 0.573708 0.294709 -0.573708
v 0.674609 -0.811345 -0.450759
v 0.674609 0.294709 -0.450759
v 0.749585 -0.811345 -0.310488
v 0.749585 0.294709 -0.310488
v 0.795755 -0.811345 -0.158286
v 0.795755 0.294709 -0.158286
v 0.811345 -0.811345 -0.000000
v 0.811345 0.294709 -0.000000
v 0.795755 -0.811345 0.158285
v 0.795755 0.294709 0.158285
v 0.749585 -0.811345 0.310488
v 0.749585 0.294709 0.310488
v 0.674609 -0.811345 0.450759
v 0.674609 0.294709 0.450759
v 0.573708 -0.811345 0.573708
v 0.573708 0.294709 0.573708
v 0.450759 -0.811345 0.674609
v 0.450759 0.294709 0.674609
v 0.310488 -0.811345 0.749585
v 0.310488 0.294709 0.749585
v 0.158285 -0.811345 0.795755
v 0.158285 0.294709 0.795755
v -0.000000 -0.811345 0.811345
v -0.000000 0.294709 0.811345
v -0.158286 -0.811345 0.795755
v -0.158286 0.294709 0.795755
v -0.310489 -0.811345 0.749585
v -0.310489 0.294709 0.749585
v -0.450760 -0.811345 0.674609
v -0.450760 0.294709 0.674609
v -0.573708 -0.811345 0.573707
v -0.573708 0.294709 0.573707
v -0.674609 -0.811345 0.450759
v -0.674609 0.294709 0.450759
v -0.749585 -0.811345 0.310488
v -0.749585 0.294709 0.310488
v -0.795755 -0.811345 0.158285
v -0.795755 0.294709 0.158285
v -0.811345 -0.811345 -0.000001
v -0.811345 0.294709 -0.000001
v -0.795755 -0.811345 -0.158286
v -0.795755 0.294709 -0.158286
v -0.749585 -0.811345 -0.310489
v -0.749585 0.294709 -0.310489
v -0.674608 -0.811345 -0.450760
v -0.674608 0.294709 -0.450760
v -0.573707 -0.811345 -0.573708
v -0.573707 0.294709 -0.573708
v -0.450758 -0.811345 -0.674609
v -0.450758 0.294709 -0.674609
v -0.310487 -0.811345 -0.749586
v -0.310487 0.294709 -0.749586
v -0.158284 -0.811345 -0.795756
v -0.158284 0.294709 -0.795756
vt 0.888297 0.818669
vt 0.818668 0.888299
vt 0.943006 0.736793
vt 0.736793 0.943006
vt 0.645816 0.980690
vt 0.549237 0.999900
vt 0.450765 0.999900
vt 0.354185 0.980689
vt 0.263208 0.943005
vt 0.181332 0.888297
vt 0.111702 0.818667
vt 0.056994 0.736791
vt 0.019311 0.645815
vt 0.000100 0.549236
vt 0.000100 0.450764
vt 0.019311 0.354183
vt 0.056995 0.263207
vt 0.999900 0.549237
vt 0.980689 0.645817
vt 0.354184 0.019311
vt 0.181333 0.111701
vt 0.263209 0.056994
vt 0.450765 0.000100
vt 0.111703 0.181331
vt 0.943005 0.263208
vt 0.818667 0.111702
vt 0.888297 0.181332
vt 0.736791 0.056994
vt 0.980689 0.354184
vt 0.999900 0.450765
vt 0.549236 0.000100
vt 0.645815 0.019311
vt 0.000000 0.000000
vn 0.000000 1.000000 -0.000003
vn 0.000000 1.000000 0.000000
vn 0.000000 1.000000 -0.000001
vn 0.000000 1.000000 0.000001
vn 0.000000 1.000000 -0.000002
vn 0.000000 1.000000 0.000002
vn 0.098017 0.000000 -0.995185
vn 0.290285 0.000000 -0.956940
vn 0.471396 0.000000 -0.881921
vn 0.634393 0.000000 -0.773011
vn 0.773011 0.000000 -0.634393
vn 0.881921 0.000000 -0.471396
vn 0.956940 0.000000 -0.290285
vn 0.995185 0.000000 -0.098017
vn 0.995185 0.000000 0.098017
vn 0.956940 0.000000 0.290285
vn 0.881921 0.000000 0.471397
vn 0.773011 0.000000 0.634393
vn 0.634393 0.000000 0.773011
vn 0.471397 0.000000 0.881921
vn 0.290285 0.000000 0.956940
vn 0.098017 0.000000 0.995185
vn -0.098018 0.000000 0.995185
vn -0.290285 0.000000 0.956940
vn -0.471397 0.000000 0.881921
vn -0.634394 0.000000 0.773010
vn -0.773011 0.000000 0.634393
vn -0.881922 0.000000 0.471396
vn -0.956941 0.000000 0.290284
vn -0.995185 0.000000 0.098016
vn -0.995185 0.000000 -0.098018
vn -0.956940 0.000000 -0.290285
vn -0.881921 0.000000 -0.471398
vn -0.773010 0.000000 -0.634394
vn -0.634392 0.000000 -0.773011
vn -0.471396 0.000000 -0.881922
vn -0.098017 0.000000 -0.995185
vn -0.290283 0.000000 -0.956941
vn 0.000000 -1.000000 -0.000012
vn 0.471397 0.000000 -0.881921
vn 0.881921 0.000000 -0.471397
vn 0.471396 0.000000 0.881922
vn 0.290284 0.000000 0.956941
vn -0.098017 0.000000 0.995185
vn -0.634393 0.000000 0.773010
vn -0.956940 0.000000 -0.290286
vn -0.471395 0.000000 -0.881922
vn -0.098016 0.000000 -0.995185
vn 0.000000 -1.000000 0.000000
vn 0.000000 -1.000000 -0.000001
vn 0.000000 -1.000000 0.000001
usemtl None
s off
f 4/1/1 2/2/1 6/3/1
f 2/2/2 64/4/2 6/3/2
f 64/4/3 62/5/3 6/3/3
f 62/5/4 60/6/4 6/3/4
f 60/6/2 58/7/2 6/3/2
f 58/7/2 56/8/2 6/3/2
f 56/8/2 54/9/2 6/3/2
f 54/9/2 52/10/2 6/3/2
f 52/10/2 50/11/2 6/3/2
f 50/11/2 48/12/2 6/3/2
f 48/12/2 46/13/2 6/3/2
f 46/13/2 44/14/2 6/3/2
f 44/14/2 42/15/2 6/3/2
f 42/15/2 40/16/2 6/3/2
f 40/16/2 38/17/2 6/3/2
f 6/3/5 10/18/5 8/19/5
f 6/3/2 38/17/2 10/18/2
f 30/20/6 34/21/6 32/22/6
f 28/23/2 34/21/2 30/20/2
f 36/24/3 34/21/3 28/23/3
f 38/17/4 36/24/4 28/23/4
f 16/25/2 20/26/2 18/27/2
f 16/25/2 22/28/2 20/26/2
f 10/18/2 38/17/2 28/23/2
f 14/29/2 22/28/2 16/25/2
f 12/30/2 10/18/2 28/23/2
f 12/30/2 28/23/2 26/31/2
f 14/29/2 12/30/2 22/28/2
f 12/30/2 26/31/2 24/32/2
f 22/28/2 12/30/2 24/32/2
usemtl None_NONE
f 1/33/7 2/33/7 3/33/7
f 3/33/8 4/33/8 5/33/8
f 5/33/9 6/33/9 7/33/9
f 7/33/10 8/33/10 9/33/10
f 9/33/11 10/33/11 11/33/11
f 11/33/12 12/33/12 13/33/12
f 13/33/13 14/33/13 15/33/13
f 15/33/14 16/33/14 17/33/14
f 17/33/15 18/33/15 19/33/15
f 19/33/16 20/33/16 21/33/16
f 21/33/17 22/33/17 23/33/17
f 23/33/18 24/33/18 25/33/18
f 25/33/19 26/33/19 27/33/19
f 27/33/20 28/33/20 29/33/20
f 29/33/21 30/33/21 31/33/21
f 31/33/22 32/33/22 33/33/22
f 33/33/23 34/33/23 35/33/23
f 35/33/24 36/33/24 37/33/24
f 37/33/25 38/33/25 39/33/25
f 39/33/26 40/33/26 41/33/26
f 41/33/27 42/33/27 43/33/27
f 43/33/28 44/33/28 45/33/28
f 45/33/29 46/33/29 47/33/29
f 47/33/30 48/33/30 49/33/30
f 49/33/31 50/33/31 51/33/31
f 51/33/32 52/33/32 53/33/32
f 53/33/33 54/33/33 55/33/33
f 55/33/34 56/33/34 57/33/34
f 57/33/35 58/33/35 59/33/35
f 59/33/36 60/33/36 61/33/36
f 63/33/37 64/33/37 1/33/37
f 61/33/38 62/33/38 63/33/38
f 1/33/39 3/33/39 63/33/39
f 2/33/7 4/33/7 3/33/7
f 4/33/8 6/33/8 5/33/8
f 6/33/40 8/33/40 7/33/40
f 8/33/10 10/33/10 9/33/10
f 10/33/11 12/33/11 11/33/11
f 12/33/41 14/33/41 13/33/41
f 14/33/13 16/33/13 15/33/13
f 16/33/14 18/33/14 17/33/14
f 18/33/15 20/33/15 19/33/15
f 20/33/16 22/33/16 21/33/16
f 22/33/17 24/33/17 23/33/17
f 24/33/18 26/33/18 25/33/18
f 26/33/19 28/33/19 27/33/19
f 28/33/42 30/33/42 29/33/42
f 30/33/43 32/33/43 31/33/43
f 32/33/22 34/33/22 33/33/22
f 34/33/44 36/33/44 35/33/44
f 36/33/24 38/33/24 37/33/24
f 38/33/25 40/33/25 39/33/25
f 40/33/45 42/33/45 41/33/45
f 42/33/27 44/33/27 43/33/27
f 44/33/28 46/33/28 45/33/28
f 46/33/29 48/33/29 47/33/29
f 48/33/30 50/33/30 49/33/30
f 50/33/31 52/33/31 51/33/31
f 52/33/46 54/33/46 53/33/46
f 54/33/33 56/33/33 55/33/33
f 56/33/34 58/33/34 57/33/34
f 58/33/35 60/33/35 59/33/35
f 60/33/47 62/33/47 61/33/47
f 64/33/48 2/33/48 1/33/48
f 62/33/38 64/33/38 63/33/38
f 3/33/49 5/33/49 63/33/49
f 5/33/49 7/33/49 63/33/49
f 7/33/49 9/33/49 63/33/49
f 9/33/49 11/33/49 63/33/49
f 11/33/50 13/33/50 63/33/50
f 13/33/49 15/33/49 63/33/49
f 15/33/49 17/33/49 63/33/49
f 17/33/49 19/33/49 63/33/49
f 19/33/50 21/33/50 63/33/50
f 21/33/51 23/33/51 63/33/51
f 23/33/49 25/33/49 63/33/49
f 41/33/49 37/33/49 39/33/49
f 41/33/50 35/33/50 37/33/50
f 53/33/49 49/33/49 51/33/49
f 55/33/50 49/33/50 53/33/50
f 55/33/49 47/33/49 49/33/49
f 55/33/49 45/33/49 47/33/49
f 25/33/49 27/33/49 63/33/49
f 27/33/49 29/33/49 63/33/49
f 29/33/49 31/33/49 63/33/49
f 63/33/49 31/33/49 61/33/49
f 31/33/49 33/33/49 61/33/49
f 33/33/49 35/33/49 61/33/49
f 35/33/49 41/33/49 61/33/49
f 41/33/49 43/33/49 61/33/49
f 43/33/49 45/33/49 55/33/49
f 61/33/49 43/33/49 59/33/49
f 43/33/49 55/33/49 57/33/49
f 59/33/49 43/33/49 57/33/49
